<?xml version="1.0" encoding="utf-8"?>
<!-- Generator: Adobe Illustrator 21.0.0, SVG Export Plug-In . SVG Version: 6.00 Build 0)  -->
<svg version="1.1" id="Layer_1" xmlns="http://www.w3.org/2000/svg" xmlns:xlink="http://www.w3.org/1999/xlink" x="0px" y="0px"
	 viewBox="0 0 64.8 64.8" style="enable-background:new 0 0 64.8 64.8;" xml:space="preserve">
<style type="text/css">
	.st0{clip-path:url(#SVGID_2_);}
	.st1{fill:none;stroke:#222222;stroke-width:2.86;stroke-miterlimit:10;}
	.st2{clip-path:url(#SVGID_4_);}
	.st3{fill:#D2D6D6;}
	.st4{clip-path:url(#SVGID_6_);}
	.st5{fill:#F58981;}
	.st6{clip-path:url(#SVGID_8_);}
	.st7{fill:none;stroke:#58595B;stroke-width:1.27;stroke-miterlimit:10;}
	.st8{clip-path:url(#SVGID_10_);}
	.st9{fill:none;stroke:#222222;stroke-width:1.27;stroke-miterlimit:10;}
	.st10{clip-path:url(#SVGID_12_);}
	.st11{fill:#FABBAF;}
	.st12{clip-path:url(#SVGID_14_);}
	.st13{fill:#FFFFFF;}
	.st14{clip-path:url(#SVGID_16_);}
	.st15{fill:none;stroke:#222222;stroke-width:1.91;stroke-linecap:round;stroke-linejoin:round;}
	.st16{clip-path:url(#SVGID_18_);}
	.st17{fill:#222222;}
	.st18{clip-path:url(#SVGID_20_);}
	.st19{clip-path:url(#SVGID_22_);}
	.st20{fill:none;stroke:#222222;stroke-width:0.64;stroke-miterlimit:10;}
	.st21{fill:#494949;}
</style>
<title>FLF-Generic-Jersey-Helmets-016</title>
<g id="Layer_2">
	<g id="Layer_2-2">
		<g>
			<defs>
				<rect id="SVGID_1_" x="1.43" y="0" width="61.94" height="64.8"/>
			</defs>
			<clipPath id="SVGID_2_">
				<use xlink:href="#SVGID_1_"  style="overflow:visible;"/>
			</clipPath>
			<g class="st0">
				<path class="st1" d="M61.93,36.66l-6.68,6.69h-5.23l-7.77,7.77c-4.569,4.562-11.97,4.556-16.532-0.012
					c-2.186-2.189-3.415-5.155-3.418-8.248v-7.11c-0.006-2.459-2.001-4.45-4.46-4.45h-8.7v-5.95c0-13.211,10.709-23.92,23.92-23.92
					c0,0,0,0,0,0h4.95c13.211,0,23.92,10.709,23.92,23.92c0,0,0,0,0,0V36.66z"/>
			</g>
		</g>
		<g>
			<defs>
				<rect id="SVGID_3_" x="1.43" y="0" width="61.94" height="64.8"/>
			</defs>
			<clipPath id="SVGID_4_">
				<use xlink:href="#SVGID_3_"  style="overflow:visible;"/>
			</clipPath>
			<g class="st2">
				<path class="st3" d="M61.93,36.66l-6.68,6.69h-5.23l-7.77,7.77c-4.569,4.562-11.97,4.556-16.532-0.012
					c-2.186-2.189-3.415-5.155-3.418-8.248v-7.11c-0.006-2.459-2.001-4.45-4.46-4.45h-8.7v-5.95c0-13.211,10.709-23.92,23.92-23.92
					c0,0,0,0,0,0h4.95c13.211,0,23.92,10.709,23.92,23.92c0,0,0,0,0,0V36.66z"/>
			</g>
		</g>
		<g>
			<defs>
				<rect id="SVGID_5_" x="1.43" y="0" width="61.94" height="64.8"/>
			</defs>
			<clipPath id="SVGID_6_">
				<use xlink:href="#SVGID_5_"  style="overflow:visible;"/>
			</clipPath>
			<g class="st4">
				<path class="st5" d="M61.93,36.66l-6.68,6.69h-5.23l-7.77,7.77c-4.569,4.562-11.97,4.556-16.532-0.012
					c-2.186-2.189-3.415-5.155-3.418-8.248v-7.11c-0.006-2.459-2.001-4.45-4.46-4.45h-8.7v-5.95c0-13.211,10.709-23.92,23.92-23.92
					c0,0,0,0,0,0h4.95c13.211,0,23.92,10.709,23.92,23.92c0,0,0,0,0,0V36.66z"/>
			</g>
		</g>
		<g>
			<defs>
				<rect id="SVGID_7_" x="1.43" y="0" width="61.94" height="64.8"/>
			</defs>
			<clipPath id="SVGID_8_">
				<use xlink:href="#SVGID_7_"  style="overflow:visible;"/>
			</clipPath>
			<g class="st6">
				<path class="st7" d="M61.93,36.66l-6.68,6.69h-5.23l-7.77,7.77c-4.569,4.562-11.97,4.556-16.532-0.012
					c-2.186-2.189-3.415-5.155-3.418-8.248v-7.11c-0.006-2.459-2.001-4.45-4.46-4.45h-8.7v-5.95c0-13.211,10.709-23.92,23.92-23.92
					c0,0,0,0,0,0h4.95c13.211,0,23.92,10.709,23.92,23.92c0,0,0,0,0,0V36.66z"/>
			</g>
		</g>
		<g>
			<defs>
				<rect id="SVGID_9_" x="1.43" y="0" width="61.94" height="64.8"/>
			</defs>
			<clipPath id="SVGID_10_">
				<use xlink:href="#SVGID_9_"  style="overflow:visible;"/>
			</clipPath>
			<g class="st8">
				<path class="st9" d="M61.93,36.66l-6.68,6.69h-5.23l-7.77,7.77c-4.569,4.562-11.97,4.556-16.532-0.012
					c-2.186-2.189-3.415-5.155-3.418-8.248v-7.11c-0.006-2.459-2.001-4.45-4.46-4.45h-8.7v-5.95c0-13.211,10.709-23.92,23.92-23.92
					c0,0,0,0,0,0h4.95c13.211,0,23.92,10.709,23.92,23.92c0,0,0,0,0,0V36.66z"/>
			</g>
		</g>
		<g>
			<defs>
				<rect id="SVGID_11_" x="1.43" y="0" width="61.94" height="64.8"/>
			</defs>
			<clipPath id="SVGID_12_">
				<use xlink:href="#SVGID_11_"  style="overflow:visible;"/>
			</clipPath>
			<g class="st10">
				<path class="st11" d="M61.36,37c0,0-7.93-1-9.77,2.25s-1.16,3.44-1.16,3.44h4.48c0.13,0,6.42-5.73,6.42-5.73"/>
			</g>
		</g>
		<g>
			<defs>
				<rect id="SVGID_13_" x="1.43" y="0" width="61.94" height="64.8"/>
			</defs>
			<clipPath id="SVGID_14_">
				<use xlink:href="#SVGID_13_"  style="overflow:visible;"/>
			</clipPath>
			<g class="st12">
				<path class="st13" d="M36.32,29.05c9.5,0,17.2-5.18,17.2-11.58s-7.7-11.59-17.2-11.59s-17.21,5.19-17.21,11.59
					S26.82,29.05,36.32,29.05"/>
			</g>
		</g>
		<g>
			<defs>
				<rect id="SVGID_15_" x="1.43" y="0" width="61.94" height="64.8"/>
			</defs>
			<clipPath id="SVGID_16_">
				<use xlink:href="#SVGID_15_"  style="overflow:visible;"/>
			</clipPath>
			<g class="st14">
				<path class="st15" d="M22.29,27.9v20.43c-0.099,2.643-0.782,5.232-2,7.58l-0.89,1.54c-1.411,2.155-3.518,3.761-5.97,4.55
					l-6.85,1.85L2.43,48.17l19.91-5 M6.36,27.9h15.93l11.45,11.45l-7.47,7.48L2.56,53.35 M22.29,43.17l7.48-7.48"/>
			</g>
		</g>
		<g>
			<defs>
				<rect id="SVGID_17_" x="1.43" y="0" width="61.94" height="64.8"/>
			</defs>
			<clipPath id="SVGID_18_">
				<use xlink:href="#SVGID_17_"  style="overflow:visible;"/>
			</clipPath>
			<g class="st16">
				<path class="st17" d="M40.94,39.35c0,2.021-1.639,3.66-3.66,3.66s-3.66-1.639-3.66-3.66s1.639-3.66,3.66-3.66l0,0
					C39.301,35.69,40.94,37.329,40.94,39.35"/>
			</g>
		</g>
		<g>
			<defs>
				<rect id="SVGID_19_" x="1.43" y="0" width="61.94" height="64.8"/>
			</defs>
			<clipPath id="SVGID_20_">
				<use xlink:href="#SVGID_19_"  style="overflow:visible;"/>
			</clipPath>
			<g class="st18">
				<circle class="st9" cx="37.28" cy="39.35" r="3.66"/>
			</g>
		</g>
		<g>
			<defs>
				<rect id="SVGID_21_" x="1.43" y="0" width="61.94" height="64.8"/>
			</defs>
			<clipPath id="SVGID_22_">
				<use xlink:href="#SVGID_21_"  style="overflow:visible;"/>
			</clipPath>
			<g class="st19">
				<path class="st20" d="M61.93,36.82h-5.38c-3.601,0-6.52,2.919-6.52,6.52c0,0.003,0,0.007,0,0.01"/>
			</g>
		</g>
		<polygon class="st21" points="30.96,10.47 43.41,10.47 42.93,14.4 30.47,14.4 		"/>
		<polygon class="st21" points="30.29,15.89 30.34,15.89 42.74,15.89 42.34,19.14 34.54,19.14 34.34,20.75 42.14,20.75 41.67,24.46 
			29.22,24.46 		"/>
	</g>
</g>
</svg>
