<svg id="Layer_1" xmlns="http://www.w3.org/2000/svg" viewBox="0 0 72 72"><style>.st0{fill:#D62627;} .st1{fill:#FCB514;}</style><path class="st0" d="M24.5 53.7l.6.3-.6-.3zM23.4 53.2c.4.2.7.3 1.1.5l-1.1-.5z"/><path class="st0" d="M55.5 11.6c0 1.5.1 3.2 0 4.9-.5-3-2.6-8.1-7.4-11 .2 2.1.4 4.6.4 7.2-.6-3-3-8.1-8.1-10.7.3 1.9.5 3.9.5 5.9 0 5.3-1.2 10.4-3.3 14.9-.3.7-.4 2.2.9 4.6-.2-.1-2.4-2.8-2.5-2.9-4.1-2.5-9-3.9-14.2-3.9-2.7 0-5.3.4-7.7 1.1.2.1.4.3.6.4 5 3.6 8.7 8.9 10.4 15 0 0 1.7 1.2 1.6 1.2-2.8-1.3-6.8-1.1-9.7-1.1H7.2c.2.8.4 1.5.7 2 .2.3.3.5.5.8 1.2 1.6 3.3 2.2 7.3 3.2h-4.5c.2.5.4.9.6 1.3.5.5 1 1.1 1.5 1.6 1.3.9 3.2 1.4 6.1 2.1h-3.8c2.4 2 4.9 3.8 7.8 5 2.6 1 8.3 2.9 10.1 4.3 1.8 1.4 3 3.3 3 5.6 0 3.2-2.2 5.8-5.1 6.6-.5.1-.4.2 0 .2 1 0 2.1-.1 3.1-.3 2.3-.3 4.6-.8 6.8-1.6 2.8-1 5.4-2.3 7.8-3.9 6.6-4.4 11.7-11 14.1-18.8.8-2.6 1.3-5.4 1.5-8.2 0-.7.1-1.4.1-2 0-9-3.5-17.3-9.3-23.5zM27.5 23c-2.3-.4-1.9 1-1.9 1s-.9-.8-1.8-1.7c-.7-.6 3.1 0 4.8.8.5.2-.4 0-1.1-.1z"/><path class="st1" d="M32.5 69.8C51 66.2 55.7 47.6 53.1 35.4c-1.5 4.2-2.7 7.7-5.7 10.3-3.2-5.1-6.2-6.2-10.7-8.5 2.3 3.2 3.5 7.5 3.1 11.2-4.4-2.2-7-2.6-12-2.5 11.2 8 18.5 17.6 4.6 23.8-.2 0-.2.1.1.1z"/></svg>