<?xml version="1.0" encoding="utf-8"?>
<!-- Generator: Adobe Illustrator 16.0.4, SVG Export Plug-In . SVG Version: 6.00 Build 0)  -->
<!DOCTYPE svg PUBLIC "-//W3C//DTD SVG 1.1//EN" "http://www.w3.org/Graphics/SVG/1.1/DTD/svg11.dtd">
<svg version="1.1" id="Layer_1" xmlns="http://www.w3.org/2000/svg" xmlns:xlink="http://www.w3.org/1999/xlink" x="0px" y="0px"
	 width="72px" height="72px" viewBox="0 0 72 72" enable-background="new 0 0 72 72" xml:space="preserve">
<g>
	<g>
		<polyline fill="#754C24" points="20.95,61.601 20.95,69.347 52.412,69.347 52.412,61.075 		"/>
		<g>
			<defs>
				<polyline id="SVGID_57_" points="20.95,61.601 20.95,69.347 52.412,69.347 52.412,61.075 				"/>
			</defs>
			<clipPath id="SVGID_2_">
				<use xlink:href="#SVGID_57_"  overflow="visible"/>
			</clipPath>
			<g clip-path="url(#SVGID_2_)">
				<g>
					
						<rect x="21.655" y="58.836" transform="matrix(0.9997 0.0255 -0.0255 0.9997 1.6631 -0.5334)" fill="#A67C52" width="0.23" height="12.372"/>
					
						<rect x="15.998" y="64.908" transform="matrix(0.068 0.9977 -0.9977 0.068 86.2917 37.9002)" fill="#A67C52" width="13.723" height="0.461"/>
					
						<rect x="23.757" y="60.936" transform="matrix(0.9998 0.0212 -0.0212 0.9998 1.4122 -0.4937)" fill="#A67C52" width="0.461" height="10.816"/>
					
						<rect x="20.639" y="65.801" transform="matrix(0.0397 0.9992 -0.9992 0.0397 90.3939 37.7776)" fill="#A67C52" width="9.809" height="0.231"/>
					<rect x="26.439" y="60.859" fill="#A67C52" width="0.231" height="10.424"/>
				</g>
				<g>
					
						<rect x="28.034" y="58.836" transform="matrix(0.9997 0.0254 -0.0254 0.9997 1.6617 -0.6944)" fill="#A67C52" width="0.231" height="12.372"/>
					
						<rect x="22.376" y="64.908" transform="matrix(0.068 0.9977 -0.9977 0.068 92.2386 31.541)" fill="#A67C52" width="13.723" height="0.46"/>
					
						<rect x="30.136" y="60.936" transform="matrix(0.9998 0.0212 -0.0212 0.9998 1.4136 -0.629)" fill="#A67C52" width="0.461" height="10.816"/>
					
						<rect x="27.017" y="65.801" transform="matrix(0.0396 0.9992 -0.9992 0.0396 96.5227 31.4107)" fill="#A67C52" width="9.808" height="0.23"/>
					<rect x="32.818" y="60.859" fill="#A67C52" width="0.23" height="10.424"/>
				</g>
				<g>
					
						<rect x="34.413" y="58.836" transform="matrix(0.9997 0.0255 -0.0255 0.9997 1.6673 -0.8583)" fill="#A67C52" width="0.23" height="12.372"/>
					
						<rect x="28.756" y="64.908" transform="matrix(0.068 0.9977 -0.9977 0.068 98.1816 25.1719)" fill="#A67C52" width="13.723" height="0.461"/>
					
						<rect x="36.515" y="60.936" transform="matrix(0.9998 0.0212 -0.0212 0.9998 1.415 -0.7642)" fill="#A67C52" width="0.461" height="10.816"/>
					
						<rect x="33.397" y="65.801" transform="matrix(0.0397 0.9992 -0.9992 0.0397 102.646 25.0294)" fill="#A67C52" width="9.809" height="0.23"/>
					<rect x="39.198" y="60.859" fill="#A67C52" width="0.23" height="10.424"/>
				</g>
				<g>
					
						<rect x="40.792" y="58.836" transform="matrix(0.9997 0.0254 -0.0254 0.9997 1.6658 -1.0187)" fill="#A67C52" width="0.231" height="12.372"/>
					
						<rect x="35.135" y="64.908" transform="matrix(0.0679 0.9977 -0.9977 0.0679 104.1313 18.8146)" fill="#A67C52" width="13.723" height="0.46"/>
					
						<rect x="42.894" y="60.936" transform="matrix(0.9998 0.0212 -0.0212 0.9998 1.4195 -0.9014)" fill="#A67C52" width="0.46" height="10.816"/>
					
						<rect x="39.776" y="65.801" transform="matrix(0.0396 0.9992 -0.9992 0.0396 108.7742 18.6587)" fill="#A67C52" width="9.808" height="0.229"/>
					<rect x="45.577" y="60.859" fill="#A67C52" width="0.23" height="10.424"/>
				</g>
				<g>
					
						<rect x="47.171" y="58.836" transform="matrix(0.9997 0.0255 -0.0255 0.9997 1.675 -1.1857)" fill="#A67C52" width="0.23" height="12.372"/>
					
						<rect x="41.514" y="64.908" transform="matrix(0.068 0.9977 -0.9977 0.068 110.072 12.4432)" fill="#A67C52" width="13.723" height="0.461"/>
					
						<rect x="49.273" y="60.936" transform="matrix(0.9998 0.0212 -0.0212 0.9998 1.4209 -1.0369)" fill="#A67C52" width="0.46" height="10.816"/>
					
						<rect x="46.155" y="65.801" transform="matrix(0.0396 0.9992 -0.9992 0.0396 114.903 12.288)" fill="#A67C52" width="9.808" height="0.23"/>
					<rect x="51.955" y="60.859" fill="#A67C52" width="0.23" height="10.424"/>
				</g>
			</g>
		</g>
		<path fill="#C69C6D" d="M52.15,61.075c-0.919,0-30.983,0.525-30.983,0.525s6.827,2.625,16.542,2.232
			C47.424,63.438,52.15,61.075,52.15,61.075z"/>
		<polygon fill="#754C24" points="21.148,65.06 17.721,61.607 16.783,57.317 17.569,57.126 18.132,61.333 21.081,63.381 		"/>
		<polygon fill="#754C24" points="17.471,59.883 15.936,59.771 16.018,59.015 17.591,59.438 		"/>
	</g>
	<path fill="#7A2728" d="M7.22,40.943c-4.066,0.343-8.263-6.355-4.45-10.168c3.813-3.813,3.813-3.813,3.813-3.813h7.626"/>
	<polygon fill="#A14B46" points="6.709,37.846 8.776,36.084 11.027,35.848 10.375,40.11 6.467,39.401 	"/>
	<polygon fill="#F15A24" points="15.77,27.647 14.646,27.894 12.01,15.87 21.315,11.679 22.015,13.384 13.342,16.569 	"/>
	<polygon fill="#B3B3B3" points="17.429,24.372 11.88,24.372 12.15,22.954 17.159,22.954 	"/>
	<path fill="#E0635D" d="M61.287,11.153c-0.017,0.48,0.359,0.884,0.84,0.9l1.367,0.047c0.481,0.016,0.884-0.36,0.899-0.84
		l0.056-1.598c0.017-0.48-0.36-0.883-0.84-0.899l-1.367-0.047c-0.482-0.016-0.884,0.359-0.9,0.84L61.287,11.153z"/>
	<path fill="#E0635D" d="M53.655,18.393c1.382,1.382,2.61,3.685,5.988,3.685c3.377,0,4.146,0,4.146,0V18.7L53.655,18.393z"/>
	<g>
		<path fill="#E0635D" d="M59.918,28.361l7.123-5.482c0,0,3.686,7.78,3.686,11.234c0,3.456-2.468,5.68-5.462,5.68H53.683V28.361
			H59.918z"/>
		<rect x="55.858" y="28.361" fill="#A14B46" width="2.705" height="11.433"/>
		<path fill="#E0635D" d="M58.75,30.05V15.269h5.067c2.995,0,6.91,4.377,6.91,7.832v11.013"/>
		<path fill="#8EC95B" d="M57.494,27.06c-3.817,0-6.911,3.093-6.911,6.91c0,3.815,3.094,6.91,6.911,6.91"/>
		<g>
			<defs>
				<path id="SVGID_59_" d="M57.494,27.06c-3.817,0-6.911,3.093-6.911,6.91c0,3.815,3.094,6.91,6.911,6.91"/>
			</defs>
			<clipPath id="SVGID_4_">
				<use xlink:href="#SVGID_59_"  overflow="visible"/>
			</clipPath>
			<g clip-path="url(#SVGID_4_)">
				<rect x="52.859" y="19.418" fill="#ECE85B" width="1.382" height="14.652"/>
				<rect x="55.155" y="19.418" fill="#ECE85B" width="1.382" height="14.652"/>
			</g>
		</g>
	</g>
	<path fill="#EEEEEE" d="M49.556,59.851c0,1.578-1.279,2.856-2.858,2.856H29.629c-1.577,0-2.857-1.278-2.857-2.856"/>
	<g>
		<g>
			<circle fill="#DE9085" cx="27.555" cy="19.551" r="2.766"/>
			<path fill="#E0635D" d="M28.871,23.117c-1.966,0.726-4.156-0.284-4.882-2.25c-0.726-1.967,0.284-4.157,2.25-4.883
				c1.967-0.726,4.157,0.284,4.883,2.251C31.849,20.201,30.839,22.391,28.871,23.117z M26.957,17.929
				c-0.895,0.33-1.354,1.325-1.024,2.22c0.331,0.894,1.327,1.354,2.221,1.024c0.894-0.331,1.354-1.327,1.022-2.222
				C28.847,18.058,27.853,17.599,26.957,17.929z"/>
		</g>
		<g>
			<circle fill="#DE9085" cx="32.96" cy="13.518" r="2.765"/>
			<path fill="#E0635D" d="M34.277,17.084c-1.968,0.726-4.158-0.283-4.884-2.251c-0.726-1.967,0.284-4.156,2.25-4.882
				c1.967-0.726,4.158,0.284,4.883,2.25C37.253,14.168,36.243,16.358,34.277,17.084z M32.361,11.896
				c-0.894,0.33-1.354,1.326-1.023,2.221c0.331,0.895,1.326,1.353,2.221,1.023s1.354-1.327,1.024-2.221
				C34.252,12.024,33.256,11.565,32.361,11.896z"/>
		</g>
	</g>
	<path fill="#E0635D" d="M26.789,29.007v-5.668c0-6.285,5.093-11.38,11.378-11.38c6.286,0,11.38,5.095,11.38,11.38v5.823"/>
	<g>
		<path fill="#7A2728" d="M49.547,23.339c0-6.285-5.094-11.38-11.38-11.38c-0.031,0-0.062,0.001-0.093,0.002
			c5.529,2.266,8.401,8.478,6.443,14.206l-1.01,2.955l6.04,0.04V23.339z"/>
	</g>
	
		<rect x="43.622" y="12.742" transform="matrix(0.775 0.632 -0.632 0.775 18.7275 -25.2505)" fill="#9D8E67" width="2.404" height="1.865"/>
	<path fill="#8EC95B" d="M51.925,30.422c0,0.649-0.525,1.176-1.174,1.176H25.584c-0.649,0-1.176-0.527-1.176-1.176v-3.246
		c0-0.648,0.527-1.175,1.176-1.175H50.75c0.649,0,1.174,0.527,1.174,1.175V30.422z"/>
	<path fill="#668941" d="M43.18,26h7.571c0.649,0,1.174,0.527,1.174,1.175v3.246c0,0.649-0.525,1.176-1.174,1.176H43.18"/>
	<path fill="#8EC95B" d="M18.922,26.636c3.817,0,6.911,3.093,6.911,6.91c0,3.815-3.094,6.91-6.911,6.91"/>
	<g>
		<defs>
			<path id="SVGID_61_" d="M18.922,26.636c3.817,0,6.911,3.093,6.911,6.91c0,3.815-3.094,6.91-6.911,6.91"/>
		</defs>
		<clipPath id="SVGID_6_">
			<use xlink:href="#SVGID_61_"  overflow="visible"/>
		</clipPath>
		<g clip-path="url(#SVGID_6_)">
			<rect x="22.174" y="26.396" fill="#ECE85B" width="1.382" height="10.997"/>
			<rect x="19.878" y="26.396" fill="#ECE85B" width="1.382" height="10.997"/>
		</g>
	</g>
	<path fill="#72924E" d="M52.819,31.396H23.516l-0.703,6.045c0,2.291,0.914,20.954,2.396,22.476h25.917
		c1.483-1.521,2.397-20.185,2.397-22.476L52.819,31.396z"/>
	<path fill="#8EC95B" d="M52.583,29.066H23.751l-0.938,8.375c0,1.373,8.498,12.135,9.517,13.657c0,0,21.193-11.366,21.193-13.657
		L52.583,29.066z"/>
	<polygon fill="#8EC95B" points="52.729,32.636 23.253,32.636 23.751,29.066 52.583,29.066 	"/>
	<g>
		<path fill="#ECE85B" d="M30.937,46.417v-8.669l1.507-1.507h3.708l1.506,1.507v8.669l-1.506,1.507h-3.708L30.937,46.417z
			 M34.594,45.723l0.389-0.39v-6.501l-0.389-0.39h-0.592l-0.391,0.39v6.501l0.391,0.39H34.594z"/>
		<path fill="#ECE85B" d="M38.675,46.417v-8.669l1.507-1.507h3.708l1.506,1.507v8.669l-1.506,1.507h-3.708L38.675,46.417z
			 M42.332,45.723l0.389-0.39v-6.501l-0.389-0.39H41.74l-0.389,0.39v6.501l0.389,0.39H42.332z"/>
	</g>
	<rect x="23.132" y="34.133" fill="#72924E" width="30.056" height="0.46"/>
	<polygon fill="#72924E" points="22.9,38.42 22.443,38.367 23.546,28.833 23.891,28.837 52.794,28.836 53.647,38.373 53.188,38.414 
		52.373,29.296 23.956,29.298 	"/>
	<g>
		<path fill="#A14B46" d="M25.287,60.157l-0.588-1.564c7.437-7.438,19.493-7.438,26.93,0l-0.589,1.564H25.287z"/>
		<path fill="#E0635D" d="M28.745,58.668l0.411,1.489h18.015l0.412-1.489C42.381,51.591,33.946,51.591,28.745,58.668z"/>
		<path fill="#A14B46" d="M39.316,55.552c0,0.635-0.515,1.151-1.153,1.151l0,0c-0.635,0-1.151-0.517-1.151-1.151l0,0
			c0-0.637,0.516-1.152,1.151-1.152l0,0C38.801,54.399,39.316,54.915,39.316,55.552L39.316,55.552z"/>
	</g>
	
		<rect x="42.097" y="53.478" transform="matrix(0.9439 0.3303 -0.3303 0.9439 20.4699 -13.0406)" fill="#8EC95B" width="13.014" height="0.46"/>
	
		<rect x="25.958" y="50.434" transform="matrix(0.5147 0.8574 -0.8574 0.5147 59.0231 3.763)" fill="#8EC95B" width="0.46" height="7.163"/>
	<g>
		<g>
			<path fill="#EEEEEE" d="M26.463,63.935v-4.068c0-0.678,0.553-1.229,1.229-1.229h2.899c0.676,0,1.229,0.551,1.229,1.229v4.068"/>
			<rect x="27.498" y="63.667" fill="#8EC95B" width="3.288" height="5.885"/>
			<rect x="29.111" y="63.667" fill="#6C8C4B" width="1.674" height="5.885"/>
			<path fill="#484445" d="M25.03,69.552c1.589-1.589,4.166-1.589,5.755,0H25.03z"/>
		</g>
		<g>
			<path fill="#EEEEEE" d="M49.864,63.935v-4.068c0-0.678-0.553-1.229-1.229-1.229h-2.899c-0.676,0-1.229,0.551-1.229,1.229v4.068"
				/>
			<rect x="45.542" y="63.667" fill="#8EC95B" width="3.287" height="5.885"/>
			<rect x="45.542" y="63.667" fill="#6C8C4B" width="1.674" height="5.885"/>
			<path fill="#484445" d="M51.298,69.552c-1.59-1.589-4.166-1.589-5.756,0H51.298z"/>
		</g>
	</g>
	<g>
		<g>
			<g>
				<path fill="#DE9085" d="M47.501,20.255c0.235,0.932-0.331,1.879-1.263,2.115l0,0c0.084,0.834-0.454,1.627-1.292,1.837
					c-0.837,0.212-1.687-0.23-2.009-1.004l-1.273,0.462c-3.086,0.844-3.846-0.881-4.329-2.745l-1.317-5.765
					c-0.574-2.274-0.388-3.782,1.439-4.243l3.559-0.898c1.827-0.46,2.708,0.777,3.281,3.052l-0.958,0.194l2.001,6.35L47.501,20.255z
					"/>
				<path fill="#DE9085" d="M44.523,24.417c-0.709,0-1.349-0.395-1.667-1.018l-1.14,0.413c-0.56,0.154-1.061,0.23-1.501,0.23
					c-2.06,0-2.644-1.591-3.03-3.082l-1.318-5.771c-0.319-1.265-0.377-2.18-0.179-2.877c0.228-0.807,0.794-1.314,1.731-1.551
					l3.559-0.898c0.264-0.066,0.515-0.1,0.748-0.1c1.682,0,2.337,1.745,2.721,3.265l0.041,0.158l-0.949,0.192l1.924,6.106
					l2.167,0.647l0.021,0.085c0.125,0.491,0.05,1.001-0.209,1.437c-0.238,0.398-0.604,0.689-1.04,0.831
					c0.025,0.868-0.564,1.66-1.417,1.874C44.833,24.397,44.678,24.417,44.523,24.417z M43.024,23.006l0.058,0.137
					c0.242,0.584,0.808,0.961,1.441,0.961c0.129,0,0.26-0.016,0.385-0.048c0.748-0.187,1.253-0.906,1.175-1.671l-0.013-0.134
					l0.13-0.033c0.411-0.104,0.757-0.36,0.975-0.725c0.202-0.338,0.27-0.732,0.194-1.116l-2.151-0.643l-2.078-6.594l0.967-0.196
					c-0.63-2.379-1.513-3.17-3.053-2.781l-3.559,0.898c-0.82,0.207-1.313,0.643-1.508,1.333c-0.182,0.644-0.124,1.509,0.182,2.721
					l1.319,5.769c0.454,1.754,1.07,2.844,2.728,2.844c0.414,0,0.886-0.072,1.407-0.214L43.024,23.006z"/>
			</g>
			
				<rect x="40.453" y="10.828" transform="matrix(0.2446 0.9696 -0.9696 0.2446 42.0793 -31.8996)" fill="#954440" width="2.122" height="0.461"/>
			<g>
				<path fill="#560100" d="M44.445,18.988c4.59,0.265,3.578,2.035,2.069,2.416l-4.57,1.334c-1.508,0.38-3.055-0.591-3.453-2.17
					l-1.292-5.117c-0.398-1.579,0.502-3.168,2.01-3.549l4.031-1.018c1.508-0.38,4.528,1.265-0.522,3.204L44.445,18.988z"/>
			</g>
			<path fill="#1B0100" d="M40.421,14.483c0.784-0.222,1.601,0.235,1.821,1.021l0.432,1.526c0.221,0.786-0.236,1.602-1.021,1.824
				l-1.121,0.315c-0.786,0.221-1.602-0.235-1.822-1.02l-0.431-1.527c-0.222-0.786,0.234-1.603,1.021-1.823L40.421,14.483z"/>
			<polygon fill="#484445" points="41.948,9.929 41.291,10.261 39.819,10.361 41.2,9.326 			"/>
		</g>
		<path fill="#FFFFFF" d="M38.019,13.836c0,0,1.238,1.197,1.402,1.246c0.163,0.049-0.303-1.795-0.303-1.795s0.27,0.233,0.398,0.262
			c0.128,0.028,0.02-0.639,0.02-0.639s0.32,0.312,0.433,0.283c0.115-0.029,0.021-0.88,0.021-0.88S38.472,12.635,38.019,13.836z"/>
		<path fill="#FFFFFF" d="M45.086,12.052c0,0-0.522,1.641-0.643,1.762c-0.119,0.121-0.585-1.723-0.585-1.723
			s-0.127,0.334-0.226,0.419c-0.099,0.085-0.321-0.553-0.321-0.553s-0.135,0.426-0.247,0.455c-0.114,0.029-0.436-0.766-0.436-0.766
			S44.118,11.209,45.086,12.052z"/>
		<path fill="#FFFFFF" d="M40.185,12.304c0,0,0.266,0.619,0.434,0.576c0.17-0.042,0.178-0.585,0.178-0.585s0.306,0.356,0.45,0.356
			c0.144-0.001,0.16-0.51,0.16-0.51s0.28,0.398,0.382,0.372s0.018-0.391,0.018-0.391s0.295,0.348,0.464,0.306
			c0.17-0.043,0.357-0.782,0.357-0.782S40.635,12.083,40.185,12.304z"/>
		<path fill="#FFFFFF" d="M39.996,21.671c0,0,0.522-1.641,0.643-1.762c0.12-0.121,0.585,1.724,0.585,1.724s0.127-0.333,0.227-0.419
			c0.098-0.085,0.321,0.553,0.321,0.553s0.134-0.426,0.246-0.455c0.115-0.029,0.435,0.766,0.435,0.766S40.964,22.514,39.996,21.671z
			"/>
		<path fill="#FFFFFF" d="M47.063,19.888c0,0-1.238-1.198-1.401-1.247c-0.164-0.049,0.302,1.795,0.302,1.795
			s-0.269-0.234-0.398-0.262c-0.128-0.028-0.019,0.638-0.019,0.638s-0.321-0.311-0.434-0.282c-0.114,0.029-0.02,0.88-0.02,0.88
			S46.611,21.088,47.063,19.888z"/>
		<path fill="#FFFFFF" d="M42.63,21.991c0,0-0.062-0.669,0.109-0.712c0.169-0.042,0.434,0.432,0.434,0.432s0.1-0.458,0.227-0.526
			c0.127-0.069,0.384,0.372,0.384,0.372s0.058-0.483,0.159-0.509c0.103-0.025,0.201,0.335,0.201,0.335s0.095-0.446,0.265-0.489
			c0.169-0.042,0.685,0.518,0.685,0.518S43.131,21.974,42.63,21.991z"/>
	</g>
	
		<rect x="32.572" y="12.815" transform="matrix(0.4574 0.8892 -0.8892 0.4574 30.713 -22.146)" fill="#9D8E67" width="1.866" height="2.561"/>
	<g>
		<path fill="#DBC4B1" d="M65.835,17.224c0,1.202-0.973,2.176-2.176,2.176H51.253c-1.202,0-2.177-0.975-2.177-2.176v-4.295
			c0-1.201,0.975-2.176,2.177-2.176h12.406c1.204,0,2.176,0.975,2.176,2.176V17.224z"/>
		<path fill="#E08FB3" d="M67.731,15.076c0,0.998-0.808,1.806-1.806,1.806H48.987c-0.998,0-1.806-0.808-1.806-1.806l0,0
			c0-0.998,0.809-1.806,1.806-1.806h16.938C66.923,13.27,67.731,14.079,67.731,15.076L67.731,15.076z"/>
		<path fill="#ECE85B" d="M49.995,13.048c-1.955,0-3.199,0.473-3.199,1.954c0,1.48,0,2.724,0,3.434c0,0.711,1.303,0.652,1.303-0.118
			s-0.918-2.28-0.918-3.242c0-0.962,1.628-2.088,3.702-0.488c2.073,1.599,4.441,0.947,5.981-0.06c1.54-1.007,3.435-1.54,5.093-0.474
			c1.658,1.066,2.783,1.302,4.263,0.651c1.481-0.651,0.652-1.777-0.385-1.777C64.799,12.929,49.995,13.048,49.995,13.048z"/>
		<path fill="#A14B46" d="M48.929,16.957c0,0,0.77-1.6,2.37-1.126c1.597,0.474,3.02,1.304,5.092,0
			c2.072-1.302,3.671-1.42,5.093-0.236c1.421,1.184,2.96,1.362,3.494,1.066c0.533-0.296,0.889,0.444,0.445,0.444
			c-0.445,0-14.659,0-15.31,0C49.461,17.104,48.929,16.957,48.929,16.957z"/>
	</g>
	<path fill="#E0635D" d="M58.18,11.046c-0.017,0.481,0.36,0.884,0.841,0.901l1.367,0.047c0.481,0.016,0.883-0.36,0.9-0.84
		l0.056-1.597c0.016-0.481-0.36-0.884-0.841-0.9l-1.367-0.047c-0.48-0.018-0.883,0.359-0.9,0.84L58.18,11.046z"/>
	<path fill="#E0635D" d="M54.07,10.846c-0.016,0.48,0.359,0.883,0.84,0.899l1.368,0.047c0.479,0.016,0.882-0.36,0.899-0.84
		l0.055-1.598c0.015-0.479-0.36-0.883-0.84-0.899l-1.367-0.047c-0.48-0.016-0.884,0.36-0.902,0.841L54.07,10.846z"/>
	<path fill="#E0635D" d="M56.514,21.004c0.48,0.004,0.874-0.382,0.878-0.863l0.013-1.368c0.004-0.481-0.382-0.874-0.862-0.878
		l-1.6-0.015c-0.48-0.003-0.873,0.382-0.876,0.862l-0.013,1.369c-0.004,0.481,0.381,0.874,0.863,0.878L56.514,21.004z"/>
	<path fill="#A14B46" d="M65.29,22.015c-0.09,0-0.177-0.054-0.213-0.143c-0.742-1.8-2.672-2.275-3.587-2.275h-4.146
		c-0.127,0-0.23-0.104-0.23-0.23s0.104-0.231,0.23-0.231h4.146c1.023,0,3.178,0.536,4.013,2.562
		c0.049,0.117-0.008,0.251-0.126,0.301C65.348,22.009,65.318,22.015,65.29,22.015z"/>
	<polygon fill="#EEEEEE" points="19.678,44.032 9.631,44.032 8.288,26.177 21.021,26.177 	"/>
	<g>
		<defs>
			<polygon id="SVGID_63_" points="19.678,44.032 9.631,44.032 8.288,26.177 21.021,26.177 			"/>
		</defs>
		<clipPath id="SVGID_8_">
			<use xlink:href="#SVGID_63_"  overflow="visible"/>
		</clipPath>
		<g clip-path="url(#SVGID_8_)">
			
				<rect x="13.853" y="18.071" transform="matrix(0.2587 0.966 -0.966 0.2587 38.7223 6.0971)" fill="#F15A24" width="3.071" height="20.413"/>
			
				<rect x="13.853" y="23.543" transform="matrix(0.2587 0.966 -0.966 0.2587 44.0082 10.1537)" fill="#F15A24" width="3.071" height="20.413"/>
			
				<rect x="13.853" y="29.014" transform="matrix(0.2587 0.9659 -0.9659 0.2587 49.2919 14.2079)" fill="#F15A24" width="3.07" height="20.413"/>
			
				<rect x="13.853" y="34.487" transform="matrix(0.2587 0.966 -0.966 0.2587 54.5801 18.2676)" fill="#F15A24" width="3.071" height="20.413"/>
		</g>
		<g clip-path="url(#SVGID_8_)">
			<path fill="#B3B3B3" d="M11.232,40.507l-0.012-1.645c-0.003-0.428-0.111-0.831-0.299-1.185c1.214-0.387,2.011-1.608,1.826-2.911
				l-0.25-1.753c-0.066-0.462-0.252-0.884-0.522-1.237c0.071-0.31,0.089-0.637,0.042-0.97l-0.249-1.753
				c-0.186-1.303-1.319-2.287-2.634-2.287c-0.126,0-0.252,0.008-0.377,0.027l-0.42,0.06l1.211,16.092
				C10.537,42.577,11.239,41.621,11.232,40.507z"/>
			<path fill="#B3B3B3" d="M19.812,26.499c-0.175-0.035-0.354-0.054-0.532-0.054c-1.26,0-2.356,0.896-2.607,2.132l-0.353,1.734
				c-0.142,0.697-0.004,1.408,0.389,2c0.392,0.593,0.992,0.998,1.688,1.14l2.027,0.412c0.006,0.002,0.012,0.002,0.018,0.003
				l0.537-7.13L19.812,26.499z"/>
		</g>
		<g clip-path="url(#SVGID_8_)">
			<path fill="#C1272D" d="M11.769,29.053c-0.067-0.469-0.257-0.897-0.534-1.252l-2.769,0.743l0.234,3.115l3.314-0.887
				L11.769,29.053z"/>
			<path fill="#C1272D" d="M12.748,34.767l-0.25-1.753c-0.004-0.025-0.009-0.05-0.013-0.076L8.87,33.906l0.233,3.117l3.497-0.937
				C12.755,35.679,12.813,35.228,12.748,34.767z"/>
			<path fill="#C1272D" d="M9.507,42.386l1.215-0.326c0.323-0.433,0.514-0.971,0.51-1.553l-0.012-1.645
				c0-0.038-0.002-0.075-0.004-0.113L9.272,39.27L9.507,42.386z"/>
			<path fill="#C1272D" d="M19.812,26.499c-0.175-0.035-0.354-0.054-0.532-0.054c-1.26,0-2.356,0.896-2.607,2.132l-0.204,1.001
				l4.386-1.176l0.125-1.666L19.812,26.499z"/>
			<path fill="#C1272D" d="M16.708,32.312c0.392,0.593,0.992,0.998,1.688,1.14l2.027,0.412c0.006,0.002,0.012,0.002,0.018,0.003
				l0.236-3.124l-4.207,1.126C16.537,32.022,16.615,32.17,16.708,32.312z"/>
		</g>
	</g>
	<polygon fill="#EEEEEE" points="22.006,26.834 7.303,26.834 8.02,24.077 21.29,24.077 	"/>
	<rect x="7.303" y="26.603" fill="#B3B3B3" width="14.703" height="0.461"/>
	<g>
		<path fill="#F15A24" d="M14.116,16.788c-0.303,0-0.601-0.123-0.815-0.337s-0.337-0.511-0.337-0.814c0-0.304,0.123-0.6,0.337-0.815
			c0.214-0.214,0.512-0.336,0.815-0.336c0.303,0,0.6,0.123,0.813,0.336c0.215,0.215,0.338,0.512,0.338,0.815
			c0,0.303-0.123,0.599-0.338,0.814C14.715,16.665,14.418,16.788,14.116,16.788z"/>
		<path fill="#F15A24" d="M12.7,17.354c-0.303,0-0.6-0.123-0.813-0.337c-0.215-0.213-0.338-0.511-0.338-0.814
			c0-0.303,0.123-0.6,0.338-0.813c0.214-0.215,0.51-0.338,0.813-0.338c0.303,0,0.6,0.123,0.814,0.338
			c0.215,0.213,0.338,0.51,0.338,0.813c0,0.304-0.123,0.601-0.338,0.814C13.3,17.23,13.002,17.354,12.7,17.354z"/>
		<path fill="#F15A24" d="M13.078,18.958c-0.304,0-0.6-0.123-0.814-0.337s-0.337-0.511-0.337-0.814c0-0.304,0.122-0.6,0.337-0.814
			c0.214-0.214,0.511-0.337,0.814-0.337c0.303,0,0.599,0.123,0.814,0.337c0.215,0.214,0.338,0.511,0.338,0.814
			c0,0.303-0.123,0.6-0.338,0.814C13.676,18.834,13.381,18.958,13.078,18.958z"/>
	</g>
	<path fill="#E0635D" d="M9.541,32.297c0.616-0.088,1.044-0.659,0.957-1.275l-0.25-1.752c-0.088-0.616-0.658-1.045-1.274-0.958
		l-2.048,0.292c-0.616,0.087-1.044,0.657-0.956,1.273l0.25,1.753c0.088,0.616,0.658,1.043,1.274,0.956L9.541,32.297z"/>
	<path fill="#E0635D" d="M10.271,36.257c0.616-0.087,1.044-0.658,0.957-1.274l-0.25-1.752c-0.087-0.616-0.658-1.045-1.274-0.956
		l-2.048,0.291c-0.616,0.087-1.043,0.658-0.957,1.273l0.25,1.753c0.088,0.616,0.658,1.044,1.273,0.957L10.271,36.257z"/>
	<path fill="#E0635D" d="M8.658,41.571c0.578-0.003,1.043-0.475,1.04-1.053l-0.012-1.646c-0.004-0.578-0.476-1.044-1.054-1.04
		l-1.922,0.013c-0.578,0.004-1.043,0.478-1.04,1.055l0.012,1.646c0.004,0.578,0.476,1.043,1.054,1.039L8.658,41.571z"/>
	<path fill="#E0635D" d="M20.73,32.359c0.611,0.124,1.204-0.27,1.328-0.879l0.353-1.734c0.125-0.61-0.269-1.205-0.879-1.329
		l-2.027-0.413c-0.61-0.123-1.205,0.27-1.329,0.879l-0.353,1.736c-0.124,0.608,0.27,1.203,0.88,1.327L20.73,32.359z"/>
	<g>
		<path fill="#8EC95B" d="M13.408,63.972c0-1.955,1.584-3.54,3.54-3.54"/>
		<path fill="#72924E" d="M16.947,60.432c0,1.955-1.585,3.54-3.54,3.54"/>
	</g>
</g>
</svg>
