<?xml version="1.0" encoding="utf-8"?>
<!-- Generator: Adobe Illustrator 16.0.4, SVG Export Plug-In . SVG Version: 6.00 Build 0)  -->
<!DOCTYPE svg PUBLIC "-//W3C//DTD SVG 1.1//EN" "http://www.w3.org/Graphics/SVG/1.1/DTD/svg11.dtd">
<svg version="1.1" id="Layer_1" xmlns="http://www.w3.org/2000/svg" xmlns:xlink="http://www.w3.org/1999/xlink" x="0px" y="0px"
	 width="72px" height="72px" viewBox="0 0 72 72" enable-background="new 0 0 72 72" xml:space="preserve">
<g>
	<path fill="#342F2E" d="M12.373,13.84L6.006,7.472c-0.855-0.854-2.242-0.854-3.099,0l0,0c-0.854,0.855-0.854,2.243,0,3.098
		l6.368,6.368"/>
	<path fill="#514E38" d="M2.907,7.472l7.917,7.917l1.549-1.549L6.006,7.472C5.15,6.618,3.764,6.618,2.907,7.472z"/>
	<g>
		<polygon fill="#342F2E" points="53.725,60.691 9.623,16.589 10.824,15.388 57.5,62.064 		"/>
		<polygon fill="#B5B3A3" points="57.5,62.064 10.824,15.388 12.025,14.187 56.126,58.289 		"/>
	</g>
	<path fill="none" stroke="#342F2E" stroke-miterlimit="10" d="M10.824,15.389l-4.299,4.297c-0.945,0.946-0.947,2.479,0,3.425"/>
	<path fill="none" stroke="#342F2E" stroke-miterlimit="10" d="M10.824,15.389l4.299-4.297c0.945-0.946,0.946-2.479,0-3.425"/>
</g>
<g>
	<path fill="#342F2E" d="M59.627,13.84l6.367-6.368c0.855-0.854,2.242-0.854,3.099,0l0,0c0.854,0.855,0.854,2.243,0,3.098
		l-6.369,6.368"/>
	<path fill="#514E38" d="M69.093,7.472l-7.917,7.917l-1.549-1.549l6.367-6.368C66.85,6.618,68.236,6.618,69.093,7.472z"/>
	<g>
		<polygon fill="#342F2E" points="18.275,60.691 62.377,16.589 61.176,15.388 14.5,62.064 		"/>
		<polygon fill="#B5B3A3" points="14.5,62.064 61.176,15.388 59.975,14.187 15.874,58.289 		"/>
	</g>
	<path fill="none" stroke="#342F2E" stroke-miterlimit="10" d="M61.176,15.389l4.299,4.297c0.945,0.946,0.946,2.479,0,3.425"/>
	<path fill="none" stroke="#342F2E" stroke-miterlimit="10" d="M61.176,15.389l-4.299-4.297c-0.945-0.946-0.946-2.479,0-3.425"/>
</g>
<g>
	<path fill="#00ADEE" d="M46.691,10.756C44.429,7.244,40.489,4.912,36,4.912c-4.49,0.002-8.43,2.333-10.693,5.846"/>
	<path fill="#342F2E" d="M25.307,10.757c2.263,3.511,6.203,5.843,10.693,5.844c4.49,0,8.429-2.333,10.691-5.845"/>
	<g>
		<line fill="none" stroke="#FFFFFF" stroke-linecap="round" stroke-miterlimit="10" x1="36" y1="4.912" x2="36" y2="7.458"/>
		
			<line fill="none" stroke="#FFFFFF" stroke-linecap="round" stroke-miterlimit="10" x1="38.658" y1="5.196" x2="38.659" y2="7.739"/>
		
			<line fill="none" stroke="#FFFFFF" stroke-linecap="round" stroke-miterlimit="10" x1="33.338" y1="5.195" x2="33.34" y2="7.739"/>
	</g>
</g>
<path fill="#342F2E" d="M51.078,18.319H39.642L36,14.677l-3.642,3.642H20.922l-3.641-3.642c0,0,0,19.111,0,24.639
	c0,9.393,18.719,16.34,18.719,16.34s18.719-6.947,18.719-16.34c0-5.528,0-24.639,0-24.639L51.078,18.319z"/>
<g>
	<path fill="#EF4E23" d="M36,48.49L17.281,29.95c0,2.674,0,5.214,0,7.167L36,55.656l18.719-18.539c0-1.953,0-4.493,0-7.167L36,48.49
		z"/>
	<polygon fill="#EF4E23" points="34.359,16.318 32.358,18.319 29.143,18.319 36,25.111 42.857,18.319 39.642,18.319 37.641,16.318 
		36,17.944 	"/>
	<path fill="#EF4E23" d="M54.699,14.697l-3.621,3.622h-0.035L36,33.217L20.957,18.319h-0.035l-3.621-3.622l-0.02-0.02
		c0,0.002,0,3.104,0,7.167L36,40.383l18.719-18.539c0-4.063,0-7.165,0-7.167L54.699,14.697z"/>
</g>
<g>
	<g>
		<path fill="#514E38" d="M44.52,56.273c0.086-0.228,0.124-0.471,0.105-0.71c-0.014-0.244-0.082-0.486-0.211-0.712
			c-0.231-0.398-0.6-0.664-1.012-0.777c-0.411-0.107-0.863-0.061-1.262,0.168c-0.395,0.228-0.666,0.601-0.771,1.012
			c-0.115,0.41-0.065,0.863,0.164,1.258l-6.178,3.569l-6.177,3.565c-0.229-0.401-0.6-0.664-1.009-0.775
			c-0.411-0.11-0.863-0.062-1.26,0.164c-0.399,0.232-0.669,0.604-0.775,1.015c-0.109,0.407-0.067,0.862,0.161,1.258
			c0.134,0.227,0.31,0.407,0.511,0.542c0.203,0.137,0.436,0.225,0.674,0.259"/>
		<path fill="#342F2E" d="M27.48,66.108c-0.092,0.23-0.127,0.472-0.111,0.714c0.018,0.24,0.082,0.487,0.213,0.713
			c0.235,0.395,0.6,0.66,1.01,0.773c0.413,0.11,0.863,0.062,1.267-0.169c0.394-0.226,0.661-0.595,0.771-1.005
			c0.109-0.414,0.063-0.866-0.166-1.266l6.178-3.564l6.177-3.566c0.231,0.398,0.597,0.664,1.009,0.773
			c0.413,0.111,0.865,0.064,1.262-0.163c0.396-0.23,0.667-0.603,0.776-1.013c0.108-0.41,0.062-0.863-0.165-1.259
			c-0.132-0.227-0.305-0.408-0.509-0.544c-0.206-0.134-0.434-0.221-0.671-0.26"/>
	</g>
	<g>
		<path fill="#514E38" d="M27.477,56.273c-0.086-0.228-0.124-0.471-0.105-0.71c0.014-0.244,0.082-0.486,0.211-0.712
			c0.231-0.398,0.6-0.664,1.012-0.777c0.411-0.107,0.863-0.061,1.262,0.168c0.395,0.228,0.666,0.601,0.771,1.012
			c0.115,0.41,0.065,0.863-0.164,1.258l6.178,3.569l6.177,3.565c0.229-0.401,0.6-0.664,1.009-0.775
			c0.411-0.11,0.863-0.062,1.26,0.164c0.399,0.232,0.669,0.604,0.775,1.015c0.109,0.407,0.067,0.862-0.161,1.258
			c-0.134,0.227-0.31,0.407-0.511,0.542c-0.203,0.137-0.436,0.225-0.674,0.259"/>
		<path fill="#342F2E" d="M44.516,66.108c0.092,0.23,0.127,0.472,0.111,0.714c-0.018,0.24-0.082,0.487-0.213,0.713
			c-0.235,0.395-0.6,0.66-1.01,0.773c-0.413,0.11-0.863,0.062-1.267-0.169c-0.394-0.226-0.661-0.595-0.771-1.005
			c-0.109-0.414-0.063-0.866,0.166-1.266l-6.178-3.564l-6.177-3.566c-0.231,0.398-0.597,0.664-1.009,0.773
			c-0.413,0.111-0.865,0.064-1.262-0.163c-0.396-0.23-0.667-0.603-0.776-1.013c-0.108-0.41-0.062-0.863,0.165-1.259
			c0.132-0.227,0.305-0.408,0.509-0.544c0.206-0.134,0.434-0.221,0.671-0.26"/>
	</g>
</g>
<g>
	<rect x="30.705" y="34.512" fill="#FFFFFF" width="10.589" height="11.277"/>
	<circle fill="#FFFFFF" cx="36" cy="31.491" r="10.262"/>
	<circle fill="#342F2E" cx="31.816" cy="30.56" r="3.379"/>
	<circle fill="#342F2E" cx="40.184" cy="30.56" r="3.379"/>
	<polygon fill="#342F2E" points="36,34.708 38.091,38.256 33.909,38.256 	"/>
	<polygon fill="#342F2E" points="41.294,43.271 39.539,43.271 39.539,40.455 38.574,40.455 38.574,43.271 36.482,43.271 
		36.482,40.455 35.518,40.455 35.518,43.271 33.426,43.271 33.426,40.455 32.461,40.455 32.461,43.271 30.705,43.271 30.705,44.236 
		32.461,44.236 32.461,45.789 33.426,45.789 33.426,44.236 35.518,44.236 35.518,45.789 36.482,45.789 36.482,44.236 38.574,44.236 
		38.574,45.789 39.539,45.789 39.539,44.236 41.294,44.236 	"/>
</g>
</svg>
