<?xml version="1.0" encoding="utf-8"?>
<!-- Generator: Adobe Illustrator 16.0.4, SVG Export Plug-In . SVG Version: 6.00 Build 0)  -->
<!DOCTYPE svg PUBLIC "-//W3C//DTD SVG 1.1//EN" "http://www.w3.org/Graphics/SVG/1.1/DTD/svg11.dtd">
<svg version="1.1" id="Layer_1" xmlns="http://www.w3.org/2000/svg" xmlns:xlink="http://www.w3.org/1999/xlink" x="0px" y="0px"
	 width="72px" height="72px" viewBox="0 0 72 72" enable-background="new 0 0 72 72" xml:space="preserve">
<g>
	<g>
		<g>
			<path fill="#E0635D" d="M23.785,33.515l-0.835-4.735c-0.925-5.252,2.581-10.26,7.833-11.187
				c5.252-0.926,10.261,2.581,11.187,7.833l0.858,4.865"/>
			<path fill="#7A2728" d="M25.312,27.336c0,0-0.598-3.389-0.653-3.708s0.032-1.059,0.736-1.183l12.161-2.145
				c0.705-0.125,1.041,0.541,1.096,0.861c0.057,0.318,0.654,3.705,0.654,3.705l0.096,0.248c0.979-0.172,1.939-1.287,1.773-2.227
				c-0.078-0.448-0.213-1.217-0.379-2.146c-0.326-1.854-2.061-8.316-10.581-6.812c-8.521,1.502-8.042,8.185-7.715,10.039
				c0.164,0.93,0.3,1.698,0.378,2.146c0.166,0.939,1.335,1.678,2.419,1.486L25.312,27.336z"/>
			<g>
				<g>
					<path fill="#7A2728" d="M30.436,29.577c-2.811,0-4.021-1.204-4.202-2.233l-0.433-2.457l12.217-2.152l0.433,2.455
						c0.048,0.266,0.122,1.21-0.882,2.19c-0.938,0.919-2.514,1.577-4.685,1.96C31.994,29.497,31.17,29.577,30.436,29.577z
						 M26.706,25.521l0.298,1.686c0.104,0.59,0.943,1.588,3.432,1.588c0.689,0,1.467-0.076,2.312-0.225
						c2.507-0.441,3.707-1.195,4.273-1.748c0.58-0.568,0.721-1.146,0.658-1.498l-0.297-1.685L26.706,25.521z"/>
					<g>
						<path fill="#7A2728" d="M34.686,28.452c-0.002,0-0.005,0-0.008,0c-0.162-0.005-0.289-0.14-0.284-0.302l0.136-4.385
							c0.006-0.162,0.135-0.275,0.303-0.283c0.162,0.004,0.289,0.141,0.284,0.303l-0.138,4.385
							C34.975,28.328,34.844,28.452,34.686,28.452z"/>
						<path fill="#7A2728" d="M30.787,29.141c-0.117,0-0.227-0.069-0.273-0.184l-1.627-4.074c-0.061-0.15,0.013-0.322,0.162-0.381
							c0.15-0.059,0.322,0.012,0.381,0.162l1.629,4.074c0.061,0.15-0.013,0.322-0.162,0.381
							C30.859,29.133,30.822,29.141,30.787,29.141z"/>
					</g>
					<path fill="#7A2728" d="M32.798,29.148c-0.14,0-0.265-0.1-0.288-0.242l-0.823-4.668c-0.028-0.159,0.079-0.311,0.237-0.34
						c0.16-0.029,0.312,0.078,0.341,0.238l0.822,4.667c0.028,0.16-0.079,0.312-0.238,0.341
						C32.832,29.146,32.814,29.148,32.798,29.148z"/>
				</g>
				
					<rect x="31.897" y="18.795" transform="matrix(0.1749 0.9846 -0.9846 0.1749 52.2171 -10.3569)" fill="#7A2728" width="0.782" height="14.365"/>
			</g>
			<g>
				<polygon fill="#7A2728" points="23.717,25.572 23.094,22.043 39.723,19.111 40.346,22.64 37.574,23.129 37.44,22.371 
					26.354,24.325 26.488,25.084 				"/>
				<g>
					<path fill="#7A2728" d="M33.955,25.576c0.068,0.388-0.191,0.759-0.581,0.827l-2.041,0.36c-0.389,0.068-0.759-0.191-0.827-0.58
						l-0.293-1.66c-0.068-0.39,0.19-0.76,0.578-0.828l2.043-0.359c0.389-0.069,0.758,0.191,0.827,0.579L33.955,25.576z"/>
					<path fill="#7A2728" d="M31.207,26.906c-0.41,0-0.76-0.294-0.832-0.699l-0.293-1.66c-0.08-0.461,0.228-0.9,0.688-0.981
						l2.041-0.36c0.468-0.084,0.9,0.232,0.98,0.688l0.293,1.66c0.081,0.46-0.227,0.9-0.687,0.98l-2.042,0.359
						C31.307,26.902,31.256,26.906,31.207,26.906z M32.958,23.456c-0.032,0-0.067,0.003-0.101,0.009l-2.043,0.36
						c-0.316,0.056-0.528,0.358-0.473,0.676l0.293,1.66c0.056,0.312,0.353,0.528,0.676,0.473l2.041-0.36
						c0.316-0.055,0.527-0.358,0.473-0.675l-0.293-1.661C33.482,23.659,33.242,23.456,32.958,23.456z"/>
				</g>
				<g>
					<path fill="#DE9085" d="M33.868,24.841c0.068,0.39-0.19,0.759-0.579,0.827l-2.043,0.361c-0.388,0.067-0.758-0.191-0.826-0.581
						l-0.294-1.66c-0.067-0.388,0.192-0.759,0.581-0.828l2.041-0.359c0.389-0.069,0.76,0.19,0.827,0.579L33.868,24.841z"/>
					<path fill="#DE9085" d="M31.123,26.171c-0.412,0-0.762-0.294-0.833-0.7l-0.293-1.66c-0.081-0.459,0.228-0.898,0.687-0.98
						l2.041-0.359c0.469-0.083,0.9,0.233,0.98,0.686l0.293,1.662c0.082,0.459-0.227,0.899-0.686,0.98l-2.043,0.359
						C31.221,26.168,31.172,26.171,31.123,26.171z M32.873,22.721c-0.033,0-0.068,0.004-0.102,0.01l-2.042,0.359
						c-0.316,0.057-0.528,0.359-0.473,0.676l0.292,1.66c0.055,0.312,0.355,0.529,0.676,0.473l2.041-0.359
						c0.316-0.057,0.529-0.359,0.474-0.676l-0.294-1.661C33.396,22.924,33.155,22.721,32.873,22.721z"/>
				</g>
				
					<rect x="31.586" y="22.231" transform="matrix(0.1725 0.985 -0.985 0.1725 50.2936 -11.4752)" fill="#E0635D" width="0.781" height="3.929"/>
				<g>
					<path fill="#FFF682" d="M28.68,22.598c0.064,0.378,0.426,0.631,0.804,0.562c0.378-0.065,0.63-0.426,0.563-0.805"/>
					<path fill="#FFF682" d="M33.075,21.822c0.067,0.377,0.428,0.63,0.806,0.562c0.378-0.066,0.63-0.426,0.562-0.804"/>
				</g>
			</g>
			<path fill="#8EC95B" d="M25.186,26.608c0,0-0.598-3.388-0.654-3.707s0.031-1.06,0.735-1.184l12.163-2.146
				c0.703-0.123,1.039,0.542,1.096,0.861s0.653,3.707,0.653,3.707l0.095,0.246c0.979-0.172,1.939-1.285,1.774-2.227
				c-0.079-0.446-0.214-1.215-0.378-2.145c-0.328-1.855-2.062-8.316-10.583-6.814c-8.521,1.504-8.042,8.186-7.714,10.04
				c0.163,0.931,0.299,1.698,0.377,2.146c0.166,0.941,1.336,1.68,2.42,1.487L25.186,26.608z"/>
			<g>
				<defs>
					<path id="SVGID_51_" d="M25.186,26.608c0,0-0.598-3.388-0.654-3.707s0.031-1.06,0.735-1.184l12.163-2.146
						c0.703-0.123,1.039,0.542,1.096,0.861s0.653,3.707,0.653,3.707l0.095,0.246c0.503-0.648,1.939-1.285,1.774-2.227
						c-0.079-0.446-0.214-1.215-0.378-2.145c-0.328-1.855-2.062-8.316-10.583-6.814c-8.521,1.504-8.042,8.186-7.714,10.04
						c0.163,0.931,0.299,1.698,0.377,2.146c0.166,0.941,1.725,1.051,2.42,1.487L25.186,26.608z"/>
				</defs>
				<clipPath id="SVGID_2_">
					<use xlink:href="#SVGID_51_"  overflow="visible"/>
				</clipPath>
				
					<rect x="26.374" y="14.928" transform="matrix(0.1736 0.9848 -0.9848 0.1736 41.5408 -16.5222)" clip-path="url(#SVGID_2_)" fill="#ECE85B" width="8.482" height="3.126"/>
				
					<rect x="26.374" y="16.101" transform="matrix(0.1737 0.9848 -0.9848 0.1737 41.5375 -16.523)" clip-path="url(#SVGID_2_)" fill="#8EC95B" width="8.483" height="0.782"/>
			</g>
			<g>
				<g>
					<path fill="#FFFFFF" d="M30.193,28.752c-3.533,0-4.025-1.779-4.088-2.136l-0.434-2.456l12.217-2.153l0.434,2.454
						c0.06,0.338,0.09,1.221-0.898,2.145c-0.938,0.877-2.516,1.516-4.688,1.898C31.805,28.668,30.949,28.752,30.193,28.752z
						 M26.578,24.795l0.297,1.686c0.121,0.688,1.062,1.489,3.318,1.489c0.711,0,1.521-0.079,2.407-0.235
						c2.517-0.444,3.722-1.17,4.29-1.701c0.729-0.682,0.689-1.271,0.66-1.436l-0.297-1.686L26.578,24.795z"/>
					<g>
						<path fill="#FFFFFF" d="M34.559,27.726c-0.004,0-0.007,0-0.01,0c-0.162-0.006-0.289-0.14-0.284-0.304l0.137-4.385
							c0.005-0.161,0.124-0.281,0.302-0.283c0.162,0.005,0.289,0.141,0.284,0.303l-0.136,4.385
							C34.846,27.6,34.715,27.726,34.559,27.726z"/>
						<path fill="#FFFFFF" d="M30.658,28.413c-0.116,0-0.227-0.069-0.273-0.185l-1.627-4.074c-0.061-0.149,0.013-0.32,0.164-0.381
							c0.148-0.059,0.32,0.013,0.381,0.164l1.627,4.074c0.061,0.149-0.012,0.32-0.163,0.381
							C30.731,28.406,30.695,28.413,30.658,28.413z"/>
					</g>
					<path fill="#FFFFFF" d="M32.67,28.42c-0.139,0-0.264-0.1-0.289-0.242l-0.822-4.667c-0.029-0.159,0.078-0.312,0.238-0.339
						c0.158-0.029,0.311,0.078,0.339,0.238l0.823,4.666c0.028,0.16-0.078,0.312-0.238,0.34C32.703,28.419,32.688,28.42,32.67,28.42z
						"/>
				</g>
				<path fill="#FFFFFF" d="M24.991,26.836l-0.932-5.279l14.448-2.547l0.932,5.279L24.991,26.836z M24.966,22.191l0.659,3.738
					l12.908-2.275l-0.66-3.738L24.966,22.191z"/>
				
					<rect x="30.96" y="12.545" transform="matrix(0.1723 0.985 -0.985 0.1723 46.3099 -13.7748)" fill="#FFFFFF" width="0.782" height="16.249"/>
				<g>
					
						<rect x="29.086" y="19.77" transform="matrix(0.1733 0.9849 -0.9849 0.1733 44.5288 -12.7285)" fill="#FFFFFF" width="1.521" height="0.782"/>
					
						<rect x="31.833" y="19.287" transform="matrix(0.1741 0.9847 -0.9847 0.1741 46.2964 -15.8429)" fill="#FFFFFF" width="1.52" height="0.782"/>
				</g>
			</g>
			<g>
				<path fill="#8EC95B" d="M39.607,17.666l0.385-0.068c0.426-0.074,0.83,0.209,0.906,0.635l0.633,3.592
					c0.075,0.426-0.209,0.832-0.635,0.906"/>
				<path fill="#8EC95B" d="M22.566,20.67l-0.385,0.069c-0.424,0.074-0.709,0.479-0.633,0.905l0.633,3.592
					c0.076,0.426,0.48,0.709,0.906,0.635"/>
			</g>
			<g>
				<path fill="#A14B46" d="M40.866,21.686c-0.093,0-0.177-0.066-0.192-0.162l-0.431-2.437c-0.019-0.106,0.052-0.209,0.159-0.228
					c0.105-0.018,0.207,0.053,0.227,0.158l0.43,2.439c0.019,0.105-0.053,0.207-0.158,0.226
					C40.889,21.686,40.877,21.686,40.866,21.686z"/>
				<path fill="#A14B46" d="M22.693,24.891c-0.094,0-0.177-0.066-0.193-0.162l-0.431-2.438c-0.018-0.106,0.052-0.207,0.159-0.228
					c0.105-0.02,0.208,0.052,0.227,0.159l0.43,2.438c0.02,0.107-0.052,0.209-0.158,0.227C22.715,24.889,22.704,24.891,22.693,24.891
					z"/>
			</g>
			<path fill="#ECE85B" d="M27.772,20.623c-0.095-0.529,0.024-1.066,0.334-1.509s0.772-0.736,1.304-0.83l2.951-0.521
				c0.531-0.093,1.067,0.026,1.508,0.334c0.443,0.311,0.738,0.773,0.832,1.305l-0.387,0.068c-0.074-0.429-0.312-0.803-0.668-1.052
				c-0.357-0.249-0.789-0.347-1.217-0.271l-2.951,0.521c-0.43,0.076-0.803,0.313-1.053,0.671c-0.249,0.355-0.346,0.787-0.269,1.217
				L27.772,20.623z"/>
		</g>
		<g>
			<circle fill="#FFFFFF" cx="38.379" cy="17.758" r="0.391"/>
			<circle fill="#FFFFFF" cx="23.753" cy="20.337" r="0.391"/>
		</g>
	</g>
	<g>
		<path fill="#E0635D" d="M18.303,38.689l-3.127,8.6c0,0,0,10.945,0,13.877s3.321,6.645,5.863,6.645h4.299V39.08"/>
		<g>
			<path fill="#A14B46" d="M25.338,39.08v28.73h-4.299c-0.135,0-0.271-0.011-0.409-0.03V38.818L25.338,39.08z"/>
		</g>
		<path fill="#A14B46" d="M24.246,65.923c0,0.409,0.33,0.739,0.738,0.739h1.16c0.408,0,0.738-0.33,0.738-0.739v-1.356
			c0-0.408-0.33-0.738-0.738-0.738h-1.16c-0.408,0-0.738,0.33-0.738,0.738V65.923z"/>
	</g>
	<path fill="#ECE85B" d="M27.958,40.677c-0.562-3.19-3.603-5.319-6.792-4.756c-3.189,0.562-5.319,3.604-4.757,6.792"/>
	<g>
		<defs>
			<path id="SVGID_53_" d="M27.958,40.677c-0.562-3.19-3.603-5.319-6.792-4.756c-3.189,0.562-5.319,3.604-4.757,6.792"/>
		</defs>
		<clipPath id="SVGID_4_">
			<use xlink:href="#SVGID_53_"  overflow="visible"/>
		</clipPath>
		<g clip-path="url(#SVGID_4_)">
			
				<rect x="20.383" y="31.802" transform="matrix(0.1733 0.9849 -0.9849 0.1733 55.264 11.1853)" fill="#8EC95B" width="1.172" height="13.42"/>
			
				<rect x="20.722" y="33.719" transform="matrix(0.1735 0.9848 -0.9848 0.1735 57.4286 12.4324)" fill="#8EC95B" width="1.171" height="13.421"/>
		</g>
	</g>
	<path fill="#E0635D" d="M50.747,3.507c2.542,0,5.863,3.714,5.863,6.646s0,13.877,0,13.877l-3.127,8.6l-7.036-0.39V3.507H50.747z"/>
	<polyline fill="#A14B46" points="53.483,32.629 46.447,32.239 46.447,10.247 	"/>
	<path fill="#ECE85B" d="M22.292,34.953c0.096,0.543,0.612,0.906,1.155,0.81l21.03-3.708c0.542-0.096,0.903-0.613,0.808-1.154
		l-0.479-2.713c-0.094-0.543-0.612-0.904-1.154-0.809l-21.029,3.707c-0.542,0.096-0.904,0.613-0.81,1.156L22.292,34.953z"/>
	<path fill="#D4BF00" d="M37.323,28.398l6.339-1.035c0.545-0.089,1.057,0.279,1.145,0.824l0.444,2.719
		c0.089,0.543-0.28,1.056-0.823,1.144l-6.342,1.034"/>
	<g>
		<path fill="#D4BF00" d="M20.508,36.262l24.543-6.409l8.701,5.129l-7.186,4.84c0,1.944-0.775,16.833-2.033,18.122H22.541
			c-1.258-1.289-2.033-17.127-2.033-19.072V36.262z"/>
	</g>
	<polygon fill="#ECE85B" points="18.039,37.527 45.086,33.152 45.051,29.853 21.523,33.852 	"/>
	<path fill="#ECE85B" d="M20.512,41.929c0,0,0-3.058,0-4.718s1.012-3.359,1.012-3.359l23.527-3.999c0,5.696-0.035,8.417,1.516,9.969
		L28.41,53.996L20.512,41.929z"/>
	<path fill="#ECE85B" d="M56.777,29.853c0,3.238-2.626,5.862-5.865,5.862c-3.237,0-5.861-2.624-5.861-5.862"/>
	<g>
		<defs>
			<path id="SVGID_55_" d="M56.777,29.853c0,3.238-2.626,5.862-5.865,5.862c-3.237,0-5.861-2.624-5.861-5.862"/>
		</defs>
		<clipPath id="SVGID_6_">
			<use xlink:href="#SVGID_55_"  overflow="visible"/>
		</clipPath>
		<g clip-path="url(#SVGID_6_)">
			<rect x="49.584" y="32.613" fill="#8EC95B" width="7.395" height="1.172"/>
			<rect x="49.584" y="30.664" fill="#8EC95B" width="7.395" height="1.172"/>
		</g>
	</g>
	
		<rect x="32.658" y="25.116" transform="matrix(0.07 0.9975 -0.9975 0.07 67.9466 2.0879)" fill="#D4BF00" width="0.391" height="24.738"/>
	<g>
		<g>
			<g>
				<path fill="#EEEEEE" d="M35.285,59.557v3.453c0,0.573,0.47,1.043,1.043,1.043h2.46c0.573,0,1.042-0.47,1.042-1.043v-3.453"/>
				<rect x="36.163" y="63.824" fill="#ECE85B" width="2.79" height="6.842"/>
				<rect x="36.163" y="63.824" fill="#D4BF00" width="1.422" height="6.842"/>
				<path fill="#484445" d="M41.047,70.666c-1.349-1.35-3.535-1.35-4.884,0H41.047z"/>
				<path fill="#EEEEEE" d="M31.752,59.557v3.453c0,0.573-0.469,1.043-1.042,1.043h-2.46c-0.574,0-1.042-0.47-1.042-1.043v-3.453"/>
				<rect x="28.086" y="63.824" fill="#ECE85B" width="2.789" height="6.842"/>
				<rect x="29.453" y="63.824" fill="#D4BF00" width="1.422" height="6.842"/>
				<path fill="#484445" d="M25.991,70.666c1.349-1.35,3.534-1.35,4.884,0H25.991z"/>
			</g>
			<path fill="#EEEEEE" d="M37.535,60.11h-8.033c-2.012,0-3.83-0.831-5.133-2.167h18.299C41.367,59.279,39.548,60.11,37.535,60.11z"
				/>
		</g>
	</g>
	<g>
		<path fill="#8EC95B" d="M37.957,49.34h-3.146l-1.278-1.277v-7.357l1.278-1.279h3.146l1.279,1.279v7.357L37.957,49.34z
			 M36.637,47.472l0.33-0.329v-5.518l-0.33-0.331h-0.503l-0.331,0.331v5.518l0.331,0.329H36.637z"/>
		<path fill="#8EC95B" d="M31.393,49.34h-3.147l-1.278-1.277v-7.357l1.278-1.279h3.147l1.278,1.279v7.357L31.393,49.34z
			 M30.07,47.472l0.33-0.329v-5.518l-0.33-0.331h-0.503l-0.33,0.331v5.518l0.33,0.329H30.07z"/>
	</g>
	<path fill="#D4BF00" d="M20.707,41.929h-0.391v-4.718c0-1.695,0.996-3.39,1.039-3.461l0.045-0.077l0.09-0.015l23.755-4.037v0.594
		c-0.001,5.331-0.001,8.008,1.459,9.468l-0.275,0.276c-1.576-1.574-1.576-4.306-1.574-9.744v-0.131l-23.208,3.943
		c-0.19,0.346-0.939,1.793-0.939,3.184V41.929z"/>
	
		<rect x="38.985" y="43.729" transform="matrix(0.3541 0.9352 -0.9352 0.3541 73.4049 -3.4231)" fill="#ECE85B" width="0.392" height="15.406"/>
	
		<rect x="39.933" y="49.033" transform="matrix(0.0426 0.9991 -0.9991 0.0426 93.8602 13.0361)" fill="#ECE85B" width="0.39" height="12.915"/>
	<g>
		<g>
			<path fill="#A14B46" d="M55.16,10.556c-0.684,0-1.336-0.257-1.836-0.725l-0.851-0.792c-0.453-0.424-0.741-0.979-0.827-1.586
				l-0.664-0.62c-0.186-0.173-0.342-0.367-0.469-0.579c-0.221-0.112-0.426-0.256-0.611-0.43l-0.848-0.791
				c-0.439-0.41-0.723-0.942-0.818-1.526h2.511c2.535,0,5.847,3.696,5.863,6.624C56.181,10.405,55.678,10.556,55.16,10.556
				L55.16,10.556z"/>
		</g>
		<path fill="#DE9085" d="M53.699,9.24c0.283-0.283,0.283-0.742,0-1.025l-1.402-1.402c-0.283-0.283-0.743-0.283-1.027,0
			l-1.125,1.127c-0.284,0.281-0.284,0.742,0,1.025l0.696,0.697c0.594,0.592,1.894,0.543,2.362,0.074L53.699,9.24z"/>
		<g>
			<path fill="#E0635D" d="M52.297,6.812l1.402,1.402c0.283,0.283,0.283,0.742,0,1.025l-0.487,0.487l-0.738-0.688
				c-0.453-0.424-0.741-0.979-0.827-1.586l-0.525-0.49l0.148-0.15C51.554,6.529,52.014,6.529,52.297,6.812z"/>
		</g>
		<path fill="#E0635D" d="M52.281,4.361c-0.279,0.299-0.746,0.314-1.045,0.036l-0.849-0.792c-0.298-0.279-0.314-0.746-0.035-1.045
			l0.926-0.991c0.278-0.298,0.745-0.314,1.044-0.036l0.848,0.793c0.299,0.279,0.315,0.745,0.036,1.044L52.281,4.361z"/>
		<path fill="#E0635D" d="M54.209,6.162c-0.278,0.297-0.746,0.313-1.043,0.035l-0.85-0.791c-0.298-0.279-0.314-0.746-0.035-1.045
			l0.925-0.991c0.278-0.299,0.745-0.315,1.044-0.036l0.849,0.792c0.298,0.278,0.314,0.747,0.036,1.045L54.209,6.162z"/>
		
			<rect x="52.643" y="2.75" transform="matrix(0.7388 0.6739 -0.6739 0.7388 16.3445 -34.6227)" fill="#A14B46" width="0.391" height="2.05"/>
		<path fill="#E0635D" d="M55.7,8.367c-0.278,0.298-0.745,0.314-1.044,0.035l-0.848-0.791c-0.299-0.279-0.315-0.746-0.036-1.044
			l0.925-0.992c0.279-0.298,0.747-0.314,1.044-0.036l0.849,0.793c0.299,0.277,0.314,0.746,0.036,1.045L55.7,8.367z"/>
		
			<rect x="53.938" y="4.653" transform="matrix(0.6594 0.7518 -0.7518 0.6594 23.1256 -38.5744)" fill="#A14B46" width="0.391" height="3.162"/>
		<g>
			<path fill="#E0635D" d="M46.447,3.507l3.084-1.597c0.381-0.197,0.889-0.065,1.126,0.293l1.374,2.074
				c0.236,0.357,0.188,0.903-0.112,1.213l-0.562,0.582c-0.3,0.309-0.81,0.33-1.132,0.047l-0.976-0.854c0,0,1.562,3.518-1.759,4.104"
				/>
		</g>
		<g>
			<path fill="#A14B46" d="M47.488,9.565c-0.092,0-0.174-0.067-0.191-0.161c-0.019-0.106,0.052-0.209,0.158-0.227
				c0.843-0.148,1.421-0.508,1.721-1.068c0.604-1.134-0.1-2.75-0.106-2.765c-0.038-0.084-0.011-0.183,0.063-0.237
				s0.175-0.049,0.244,0.012l0.976,0.853c0.248,0.217,0.636,0.2,0.864-0.036l0.562-0.581c0.234-0.244,0.275-0.688,0.09-0.97
				l-1.374-2.073c-0.061-0.091-0.036-0.212,0.054-0.271C50.64,1.98,50.76,2.005,50.82,2.094l1.375,2.074
				c0.285,0.433,0.225,1.086-0.136,1.458l-0.563,0.581c-0.371,0.385-1,0.409-1.401,0.059L49.66,5.887
				c0.166,0.639,0.287,1.602-0.14,2.404c-0.357,0.672-1.03,1.101-1.997,1.271C47.512,9.564,47.5,9.565,47.488,9.565z"/>
		</g>
	</g>
</g>
</svg>
